<svg class="header-module--deimosMainLogo--wyNRu" data-name="Layer 1" fill="none" height="18" id="deimosMainLogoHeight" viewBox="0 0 128 18" width="128" xmlns="http://www.w3.org/2000/svg"><path class="header-module--svgLogo--jQMBM" d="M72.8832 0.870155L76.0569 4.04663C76.0976 4.08674 76.13 4.13465 76.152 4.18754C76.1739 4.24042 76.1851 4.29719 76.1848 4.35448L76.1994 17.4905C76.2 17.5475 76.1894 17.6042 76.168 17.6571C76.1467 17.71 76.1151 17.7581 76.0751 17.7987C76.0351 17.8393 75.9874 17.8715 75.935 17.8935C75.8825 17.9155 75.8262 17.9269 75.7693 17.9269L73.1973 17.9298C73.082 17.9299 72.9714 17.8841 72.8898 17.8025C72.8082 17.7208 72.7623 17.6099 72.7622 17.4943L72.7478 4.6143C72.7483 4.55723 72.7375 4.50065 72.716 4.4478C72.6946 4.39495 72.6629 4.34688 72.6228 4.30638C72.5827 4.26589 72.535 4.23376 72.4825 4.21186C72.4299 4.18996 72.3736 4.17872 72.3167 4.17878L66.3354 4.18545C66.2785 4.18551 66.2222 4.19688 66.1697 4.21889C66.1172 4.24091 66.0696 4.27314 66.0296 4.31373C65.9896 4.35431 65.958 4.40245 65.9367 4.45535C65.9153 4.50825 65.9046 4.56486 65.9052 4.62192L65.9196 17.5019C65.9197 17.6176 65.874 17.7285 65.7926 17.8104C65.7112 17.8922 65.6007 17.9383 65.4854 17.9384L62.9135 17.9413C62.8566 17.9413 62.8002 17.9301 62.7477 17.9082C62.6952 17.8863 62.6475 17.8542 62.6074 17.8137C62.5673 17.7732 62.5356 17.7251 62.5141 17.6723C62.4927 17.6194 62.4819 17.5628 62.4823 17.5057L62.4677 4.36976C62.4673 4.31247 62.4783 4.25567 62.5002 4.20274C62.522 4.14981 62.5542 4.10182 62.5949 4.06162L65.7814 0.878065C65.8617 0.797145 65.9705 0.751062 66.0843 0.749724L72.5641 0.742507C72.6231 0.741144 72.6818 0.751754 72.7366 0.773687C72.7915 0.795621 72.8413 0.828429 72.8832 0.870155ZM14.5815 0.93509L17.775 4.11154C17.8556 4.19382 17.9014 4.30408 17.903 4.41939L17.9141 14.3754C17.913 14.4919 17.8674 14.6036 17.7868 14.6875L14.5524 17.8511C14.4713 17.9302 14.3627 17.9748 14.2495 17.9755L1.2063 17.99C1.09343 17.9923 0.984167 17.95 0.902042 17.8723C0.819918 17.7946 0.771493 17.6877 0.767207 17.5745L0.749052 1.2745C0.748924 1.15992 0.794182 1.04999 0.874856 0.968887C0.955529 0.887781 1.06502 0.842149 1.17923 0.842022L14.2623 0.82745C14.32 0.823424 14.3778 0.830858 14.4326 0.849331C14.4874 0.867804 14.538 0.896948 14.5815 0.93509ZM14.0149 4.24372L4.60434 4.2542C4.54745 4.25426 4.49113 4.26563 4.43864 4.28765C4.38616 4.30967 4.33854 4.3419 4.29854 4.38248C4.25854 4.42307 4.22696 4.4712 4.20562 4.5241C4.18427 4.577 4.17358 4.63361 4.17417 4.69068L4.1847 14.1387C4.18423 14.1957 4.19504 14.2523 4.21651 14.3052C4.23798 14.358 4.26966 14.4061 4.30975 14.4466C4.34984 14.4871 4.39753 14.5192 4.45006 14.5411C4.5026 14.563 4.55894 14.5743 4.61583 14.5742L14.0264 14.5637C14.0833 14.5637 14.1396 14.5523 14.1921 14.5303C14.2446 14.5083 14.2922 14.476 14.3322 14.4354C14.3722 14.3949 14.4038 14.3467 14.4251 14.2938C14.4465 14.2409 14.4572 14.1843 14.4566 14.1272L14.4461 4.67924C14.4465 4.62217 14.4357 4.56558 14.4142 4.51273C14.3928 4.45988 14.3611 4.41181 14.321 4.37132C14.2809 4.33083 14.2332 4.2987 14.1807 4.2768C14.1282 4.2549 14.0718 4.24365 14.0149 4.24372ZM76.6154 0.737995C76.5022 0.739144 76.3939 0.784566 76.3136 0.864589C76.2332 0.944612 76.1872 1.05292 76.1852 1.16648L76.1859 1.79048L76.1881 3.74248C76.1882 3.85705 76.2337 3.96688 76.3146 4.0478C76.3954 4.12873 76.505 4.17412 76.6193 4.17399L82.6006 4.16733C82.7158 4.1672 82.8264 4.21302 82.908 4.2947C82.9896 4.37637 83.0356 4.48721 83.0357 4.60284L83.0501 17.5028C83.0502 17.6174 83.0957 17.7273 83.1765 17.8082C83.2574 17.8891 83.367 17.9345 83.4812 17.9344L86.0532 17.9315C86.1677 17.9314 86.2776 17.8859 86.3589 17.8049C86.4403 17.7239 86.4864 17.6139 86.4873 17.499L86.4727 4.34302C86.4711 4.22771 86.4253 4.11744 86.3447 4.03517L83.1511 0.858719C83.0689 0.778091 82.9589 0.732364 82.844 0.731058L76.6154 0.737995ZM42.3264 4.21219L48.3077 4.20552C48.3646 4.20546 48.421 4.2167 48.4735 4.2386C48.526 4.26051 48.5737 4.29263 48.6138 4.33313C48.6539 4.37362 48.6856 4.42169 48.7071 4.47454C48.7285 4.52739 48.7393 4.58398 48.7389 4.64104L48.7494 14.089C48.75 14.1461 48.7393 14.2027 48.718 14.2556C48.6966 14.3085 48.665 14.3567 48.625 14.3972C48.585 14.4378 48.5374 14.4701 48.4849 14.4921C48.4324 14.5141 48.3761 14.5255 48.3192 14.5255L42.3379 14.5322C42.2237 14.5323 42.1142 14.5779 42.0336 14.6591C41.9529 14.7402 41.9076 14.8501 41.9078 14.9647L41.9106 17.5287C41.9101 17.5857 41.921 17.6423 41.9424 17.6952C41.9639 17.748 41.9956 17.7961 42.0357 17.8366C42.0758 17.8771 42.1235 17.9092 42.176 17.9311C42.2285 17.953 42.2849 17.9642 42.3418 17.9642L58.5989 17.9461C58.6555 17.9455 58.7114 17.9337 58.7634 17.9115C58.8154 17.8892 58.8626 17.8569 58.9022 17.8164C58.9417 17.7759 58.973 17.7279 58.9941 17.6753C59.0152 17.6226 59.0257 17.5663 59.0251 17.5096L59.0223 14.9576C59.0222 14.843 58.9767 14.7332 58.8958 14.6523C58.815 14.5713 58.7054 14.526 58.5911 14.5261L52.6417 14.5327C52.5265 14.5328 52.4159 14.487 52.3343 14.4053C52.2527 14.3237 52.2067 14.2128 52.2066 14.0972L52.1961 4.63719C52.1959 4.52156 52.2416 4.41062 52.323 4.32876C52.4045 4.24691 52.515 4.20084 52.6302 4.20071L58.6115 4.19405C58.6684 4.19451 58.7248 4.18367 58.7775 4.16214C58.8302 4.14061 58.8781 4.10882 58.9185 4.06861C58.9589 4.0284 58.9909 3.98055 59.0127 3.92785C59.0346 3.87515 59.0458 3.81864 59.0457 3.76157L59.0428 1.19357C59.0433 1.1365 59.0325 1.07991 59.011 1.02706C58.9896 0.974209 58.9579 0.926143 58.9178 0.885648C58.8777 0.845153 58.83 0.813028 58.7775 0.791127C58.7249 0.769226 58.6686 0.757981 58.6117 0.758047L42.3386 0.776172C42.224 0.776295 42.1141 0.821801 42.0328 0.902794C41.9515 0.983788 41.9053 1.09372 41.9044 1.20866L41.9073 3.77665C41.9063 3.89055 41.9503 4.0002 42.0295 4.08177C42.1088 4.16333 42.2169 4.2102 42.3304 4.21218L42.3264 4.21219ZM21.3123 4.4156L21.3234 14.3716C21.3246 14.4889 21.372 14.6011 21.4553 14.6834L24.6489 17.8399C24.6888 17.8795 24.7362 17.9108 24.7882 17.932C24.8402 17.9533 24.8959 17.964 24.9521 17.9636L38.0232 17.949C38.1385 17.9489 38.249 17.9028 38.3304 17.8209C38.4118 17.7391 38.4575 17.6281 38.4574 17.5125L38.4546 14.9685C38.4545 14.9114 38.4432 14.8549 38.4212 14.8023C38.3993 14.7496 38.3671 14.7019 38.3267 14.6618C38.2862 14.6216 38.2382 14.59 38.1855 14.5685C38.1328 14.5471 38.0763 14.5364 38.0194 14.537L25.1875 14.5513C25.1306 14.5514 25.0743 14.5401 25.0218 14.5182C24.9692 14.4963 24.9215 14.4642 24.8815 14.4237C24.8414 14.3832 24.8097 14.3351 24.7882 14.2823C24.7667 14.2294 24.7559 14.1728 24.7564 14.1158L24.7535 11.5478C24.7529 11.4907 24.7636 11.4341 24.785 11.3812C24.8063 11.3283 24.8379 11.2802 24.8779 11.2396C24.9179 11.199 24.9655 11.1668 25.018 11.1447C25.0705 11.1227 25.1268 11.1113 25.1837 11.1113L38.0315 11.097C38.0884 11.0974 38.1449 11.0866 38.1975 11.0651C38.2502 11.0435 38.2981 11.0117 38.3385 10.9715C38.3789 10.9313 38.4109 10.8835 38.4327 10.8308C38.4546 10.7781 38.4658 10.7216 38.4657 10.6645L38.4628 8.09249C38.4627 7.97686 38.4168 7.86601 38.3352 7.78433C38.2536 7.70266 38.143 7.65685 38.0277 7.65698L25.1799 7.67129C25.0657 7.67142 24.9561 7.62603 24.8752 7.5451C24.7944 7.46418 24.7489 7.35435 24.7487 7.23977L24.7459 4.66777C24.7453 4.6107 24.756 4.55409 24.7773 4.50119C24.7987 4.44829 24.8303 4.40015 24.8703 4.35957C24.9102 4.31899 24.9579 4.28675 25.0103 4.26474C25.0628 4.24272 25.1191 4.23135 25.176 4.23129L38.0279 4.21697C38.1421 4.21685 38.2516 4.17121 38.3322 4.09011C38.4129 4.009 38.4582 3.89907 38.458 3.7845L38.4552 1.2165C38.4556 1.15943 38.4448 1.10284 38.4234 1.04999C38.4019 0.997139 38.3702 0.949073 38.3301 0.908578C38.29 0.868083 38.2423 0.835958 38.1898 0.814057C38.1373 0.792156 38.0809 0.780912 38.024 0.780977L24.9609 0.795527C24.9047 0.795232 24.849 0.806062 24.7971 0.827399C24.7451 0.848736 24.6978 0.880159 24.658 0.919863L21.4436 4.12345C21.3669 4.20188 21.3216 4.30585 21.3163 4.41559L21.3123 4.4156ZM103.735 0.835793L106.928 4.01224C107.009 4.09452 107.055 4.20478 107.056 4.3201L107.067 14.2801C107.066 14.3954 107.021 14.5058 106.94 14.5882L103.754 17.7918C103.714 17.8322 103.667 17.8644 103.615 17.8864C103.563 17.9084 103.507 17.9199 103.451 17.9201L93.4979 17.9312C93.3829 17.9299 93.2729 17.8842 93.1907 17.8035L90.0171 14.6071C89.9775 14.5671 89.9462 14.5197 89.9249 14.4675C89.9036 14.4154 89.8928 14.3596 89.8931 14.3032L89.882 4.34323C89.8816 4.28594 89.8926 4.22913 89.9145 4.1762C89.9363 4.12327 89.9686 4.07528 90.0093 4.03508L93.2236 0.831497C93.2635 0.791792 93.3108 0.760369 93.3627 0.739032C93.4147 0.717695 93.4704 0.706866 93.5266 0.70716L103.432 0.696128C103.548 0.700615 103.659 0.750749 103.739 0.835789L103.735 0.835793ZM103.152 4.14444L93.7577 4.1549C93.6431 4.15609 93.5336 4.20261 93.4531 4.28436C93.3725 4.3661 93.3274 4.47644 93.3275 4.59138L93.338 14.0394C93.3382 14.1543 93.3835 14.2646 93.4643 14.3461C93.545 14.4277 93.6546 14.474 93.7692 14.4749L103.168 14.4644C103.283 14.4643 103.394 14.4182 103.475 14.3364C103.556 14.2545 103.602 14.1436 103.602 14.028L103.591 4.57995C103.591 4.46431 103.545 4.35348 103.464 4.2718C103.382 4.19013 103.272 4.14431 103.156 4.14444L103.152 4.14444ZM127.595 3.68522L127.593 1.11722C127.593 1.06015 127.582 1.00356 127.561 0.950711C127.539 0.89786 127.508 0.849794 127.468 0.809299C127.427 0.768804 127.38 0.736679 127.327 0.714778C127.275 0.692876 127.218 0.681632 127.161 0.681698L114.003 0.696354C113.887 0.697075 113.777 0.743174 113.696 0.824699L110.573 4.02818C110.534 4.06824 110.502 4.11573 110.481 4.16792C110.46 4.22011 110.449 4.27598 110.45 4.33232L110.453 7.41631C110.453 7.47265 110.464 7.52849 110.485 7.58063C110.506 7.63278 110.538 7.68021 110.577 7.72018L113.695 10.9167C113.735 10.9577 113.783 10.9902 113.836 11.0121C113.888 11.0341 113.945 11.045 114.002 11.0444L123.752 11.0335C123.867 11.0334 123.978 11.0792 124.059 11.1609C124.141 11.2425 124.187 11.3534 124.187 11.469L124.19 14.029C124.19 14.1447 124.144 14.2556 124.063 14.3375C123.981 14.4193 123.871 14.4654 123.755 14.4655L110.892 14.4798C110.835 14.4799 110.779 14.4911 110.727 14.5129C110.675 14.5347 110.627 14.5665 110.587 14.6067C110.547 14.6469 110.516 14.6945 110.494 14.7469C110.473 14.7994 110.461 14.8556 110.462 14.9123L110.464 17.5043C110.464 17.5614 110.475 17.618 110.496 17.6708C110.518 17.7237 110.549 17.7717 110.589 17.8122C110.63 17.8527 110.677 17.8848 110.73 17.9067C110.782 17.9286 110.839 17.9399 110.896 17.9398L124.023 17.9252C124.138 17.9245 124.248 17.8784 124.329 17.7969L127.476 14.5934C127.516 14.5536 127.548 14.5063 127.57 14.4541C127.592 14.4019 127.603 14.3458 127.603 14.2892L127.6 11.2172C127.6 11.1606 127.588 11.1046 127.566 11.0524C127.544 11.0003 127.512 10.953 127.472 10.9134L124.318 7.71688C124.278 7.67533 124.231 7.64225 124.178 7.61963C124.125 7.59701 124.068 7.5853 124.011 7.58521L114.329 7.59599C114.215 7.59612 114.105 7.55073 114.025 7.46981C113.944 7.38888 113.898 7.27905 113.898 7.16448L113.895 4.56847C113.895 4.45353 113.94 4.34319 114.021 4.26145C114.101 4.17971 114.211 4.13318 114.325 4.132L127.153 4.11771C127.211 4.11925 127.268 4.1092 127.322 4.08815C127.375 4.0671 127.424 4.03548 127.465 3.99516C127.507 3.95483 127.539 3.90663 127.562 3.8534C127.584 3.80016 127.596 3.74298 127.595 3.68522Z" fill="#36B8F2"></path></svg>